<?xml version="1.0" encoding="utf-8"?>
<!-- Generator: Adobe Illustrator 16.0.0, SVG Export Plug-In . SVG Version: 6.00 Build 0)  -->
<!DOCTYPE svg PUBLIC "-//W3C//DTD SVG 1.1//EN" "http://www.w3.org/Graphics/SVG/1.1/DTD/svg11.dtd">
<svg version="1.1" xmlns="http://www.w3.org/2000/svg" xmlns:xlink="http://www.w3.org/1999/xlink" x="0px" y="0px" width="723px"
	 height="298px" viewBox="0 0 723 298" enable-background="new 0 0 723 298" xml:space="preserve">
<g id="Layer_2" display="none">
	<g id="Layer_2_1_" display="inline">
		<rect x="-84.547" y="-69.678" fill="#AA2424" stroke="#000000" stroke-miterlimit="10" width="895.001" height="423.999"/>
	</g>
</g>
<g id="Layer_3">
</g>
<g id="Layer_1">
	<g>
		
			<linearGradient id="SVGID_1_" gradientUnits="userSpaceOnUse" x1="129.863" y1="416.8008" x2="129.863" y2="469.6357" gradientTransform="matrix(1 0 0 1 -0.0303 -297.6016)">
			<stop  offset="0" style="stop-color:#FFFFFF"/>
			<stop  offset="1" style="stop-color:#D5D5D5"/>
		</linearGradient>
		<path fill="url(#SVGID_1_)" d="M94.25,119.2h71.165c4.169,0,7.548,3.378,7.548,7.548v37.738c0,4.169-3.378,7.548-7.548,7.548
			H94.25c-4.169,0-7.548-3.378-7.548-7.548v-37.738C86.702,122.58,90.081,119.2,94.25,119.2z"/>
	</g>
	<path fill="#101228" d="M100.232,143.019c-0.298,0-0.544-0.09-0.738-0.271c-0.181-0.194-0.271-0.439-0.271-0.737v-11.102H95.34
		c-0.622,0-0.931-0.279-0.931-0.835c0-0.271,0.077-0.479,0.232-0.622c0.17-0.142,0.401-0.213,0.699-0.213h9.781
		c0.298,0,0.525,0.071,0.68,0.213c0.169,0.143,0.252,0.35,0.252,0.622c0,0.556-0.31,0.835-0.932,0.835h-3.88v11.102
		c0,0.298-0.09,0.543-0.271,0.737C100.787,142.928,100.542,143.019,100.232,143.019z"/>
	<path fill="#101228" d="M109.962,133.217c1.254,0,2.186,0.317,2.794,0.951c0.621,0.634,0.932,1.599,0.932,2.892v5.027
		c0,0.298-0.086,0.531-0.253,0.699c-0.168,0.154-0.401,0.232-0.699,0.232c-0.284,0-0.51-0.084-0.679-0.252
		c-0.168-0.168-0.251-0.395-0.251-0.679v-0.718c-0.247,0.544-0.616,0.964-1.108,1.262c-0.477,0.285-1.04,0.427-1.687,0.427
		c-0.622,0-1.191-0.123-1.709-0.369c-0.516-0.259-0.924-0.614-1.223-1.067c-0.284-0.453-0.427-0.957-0.427-1.514
		c0-0.685,0.174-1.223,0.523-1.611c0.362-0.401,0.953-0.686,1.766-0.854c0.829-0.168,1.96-0.252,3.396-0.252h0.447v-0.563
		c0-0.724-0.149-1.249-0.447-1.572c-0.296-0.324-0.774-0.485-1.436-0.485c-0.453,0-0.879,0.059-1.281,0.175
		c-0.399,0.116-0.841,0.284-1.32,0.504c-0.349,0.194-0.595,0.291-0.736,0.291c-0.194,0-0.357-0.071-0.486-0.213
		c-0.116-0.142-0.175-0.323-0.175-0.543c0-0.194,0.054-0.362,0.156-0.504c0.116-0.155,0.297-0.305,0.545-0.446
		c0.452-0.246,0.983-0.44,1.591-0.583C108.803,133.295,109.392,133.217,109.962,133.217z M109.361,141.602
		c0.711,0,1.293-0.24,1.746-0.718c0.453-0.491,0.68-1.119,0.68-1.883v-0.504h-0.35c-1.009,0-1.785,0.045-2.329,0.136
		s-0.932,0.246-1.165,0.466c-0.232,0.207-0.349,0.511-0.349,0.913c0,0.465,0.169,0.847,0.504,1.145
		C108.435,141.453,108.855,141.602,109.361,141.602z"/>
	<path fill="#101228" d="M121.455,133.217c0.828,0,1.559,0.201,2.193,0.602c0.633,0.402,1.125,0.971,1.475,1.708
		c0.363,0.738,0.545,1.599,0.545,2.582c0,0.971-0.181,1.831-0.545,2.582c-0.349,0.75-0.847,1.333-1.495,1.747
		c-0.632,0.414-1.358,0.621-2.172,0.621c-0.712,0-1.339-0.148-1.883-0.446c-0.545-0.312-0.959-0.751-1.242-1.32v0.776
		c0,0.285-0.093,0.518-0.272,0.698c-0.169,0.168-0.401,0.252-0.699,0.252c-0.297,0-0.537-0.084-0.718-0.252
		c-0.181-0.181-0.271-0.414-0.271-0.698v-11.995c0-0.285,0.09-0.511,0.271-0.679c0.193-0.168,0.439-0.253,0.737-0.253
		c0.284,0,0.51,0.084,0.679,0.253c0.18,0.155,0.272,0.369,0.272,0.64v4.969c0.283-0.569,0.697-1.009,1.242-1.32
		C120.115,133.373,120.743,133.217,121.455,133.217z M120.989,141.505c0.843,0,1.495-0.298,1.96-0.893
		c0.479-0.595,0.718-1.43,0.718-2.504c0-1.061-0.232-1.876-0.697-2.446c-0.466-0.582-1.126-0.873-1.981-0.873
		c-0.852,0-1.514,0.291-1.979,0.873c-0.453,0.583-0.679,1.411-0.679,2.485s0.226,1.901,0.679,2.484
		C119.474,141.214,120.135,141.505,120.989,141.505z"/>
	
		<path opacity="0.75" fill="none" stroke="#101228" stroke-width="1.788" stroke-linecap="round" stroke-linejoin="round" enable-background="new    " d="
		M97.485,156.939h39.896 M137.381,156.939l-7.141-7.548 M137.381,156.939l-7.141,7.547 M137.381,156.939v-7.548v15.095"/>
	<g>
		
			<linearGradient id="SVGID_2_" gradientUnits="userSpaceOnUse" x1="587.3777" y1="431.8301" x2="587.3777" y2="469.6401" gradientTransform="matrix(1 0 0 1 -0.0303 -297.6016)">
			<stop  offset="0" style="stop-color:#FFFFFF"/>
			<stop  offset="1" style="stop-color:#D5D5D5"/>
		</linearGradient>
		<path fill="url(#SVGID_2_)" d="M539.186,147.731c0-3.48,2.821-6.301,6.302-6.301h29.257c3.48,0,6.303-2.821,6.303-6.301v-8.553
			c0-3.48,2.819-6.301,6.3-6.301h41.859c3.48,0,6.302,2.821,6.302,6.301v39.16c0,3.48-2.821,6.301-6.302,6.301h-83.719
			c-3.48,0-6.302-2.82-6.302-6.301V147.731z"/>
	</g>
	<path fill="#101228" d="M591.426,139.288c-0.259,0-0.465-0.071-0.616-0.211c-0.141-0.151-0.21-0.351-0.21-0.599v-9.803
		c0-0.248,0.069-0.443,0.21-0.583c0.152-0.152,0.357-0.227,0.616-0.227h5.963c0.249,0,0.437,0.06,0.567,0.178
		c0.142,0.119,0.21,0.286,0.21,0.503c0,0.216-0.068,0.383-0.21,0.502c-0.13,0.108-0.318,0.163-0.567,0.163h-5.152v3.597h4.828
		c0.25,0,0.437,0.059,0.567,0.177c0.141,0.119,0.21,0.287,0.21,0.503c0,0.216-0.069,0.383-0.21,0.502
		c-0.13,0.12-0.317,0.178-0.567,0.178h-4.828v3.776h5.152c0.518,0,0.777,0.222,0.777,0.664c0,0.216-0.069,0.384-0.211,0.502
		c-0.13,0.119-0.318,0.179-0.567,0.179H591.426L591.426,139.288z"/>
	<path fill="#101228" d="M604.144,131.186c1.891,0,2.836,1.063,2.836,3.191v4.213c0,0.249-0.076,0.443-0.226,0.583
		c-0.141,0.13-0.341,0.194-0.6,0.194c-0.25,0-0.449-0.07-0.601-0.211c-0.14-0.14-0.212-0.329-0.212-0.567v-4.131
		c0-0.67-0.134-1.162-0.404-1.476c-0.259-0.313-0.669-0.469-1.231-0.469c-0.659,0-1.188,0.205-1.588,0.616
		c-0.398,0.41-0.6,0.961-0.6,1.652v3.808c0,0.238-0.076,0.427-0.226,0.567c-0.143,0.141-0.335,0.211-0.584,0.211
		s-0.447-0.07-0.6-0.211c-0.15-0.14-0.227-0.329-0.227-0.567v-6.595c0-0.226,0.077-0.41,0.227-0.551
		c0.161-0.151,0.362-0.226,0.6-0.226s0.427,0.07,0.567,0.21c0.141,0.14,0.211,0.323,0.211,0.551v0.664
		c0.259-0.475,0.621-0.837,1.086-1.086C603.037,131.31,603.561,131.186,604.144,131.186z"/>
	<path fill="#101228" d="M613.093,138.12c0.237,0.022,0.404,0.087,0.5,0.194c0.11,0.098,0.163,0.238,0.163,0.422
		c0,0.215-0.086,0.383-0.259,0.502c-0.161,0.109-0.404,0.151-0.73,0.13l-0.436-0.032c-0.877-0.065-1.53-0.33-1.961-0.793
		c-0.433-0.476-0.649-1.172-0.649-2.091v-3.808h-0.972c-0.475,0-0.713-0.211-0.713-0.632c0-0.194,0.06-0.345,0.178-0.454
		c0.13-0.119,0.308-0.178,0.535-0.178h0.972v-1.669c0-0.248,0.072-0.442,0.212-0.583c0.15-0.141,0.351-0.211,0.599-0.211
		c0.25,0,0.449,0.07,0.601,0.211s0.228,0.335,0.228,0.583v1.669h1.603c0.228,0,0.4,0.059,0.519,0.178
		c0.13,0.109,0.194,0.26,0.194,0.454c0,0.206-0.064,0.361-0.194,0.47c-0.118,0.108-0.291,0.162-0.519,0.162h-1.603v3.922
		c0,0.507,0.102,0.88,0.307,1.117c0.217,0.238,0.541,0.373,0.973,0.405L613.093,138.12z"/>
	<path fill="#101228" d="M620.949,137.293c0.15,0,0.275,0.06,0.372,0.179c0.097,0.118,0.146,0.27,0.146,0.453
		c0,0.313-0.194,0.578-0.584,0.794c-0.378,0.216-0.794,0.383-1.247,0.503c-0.443,0.118-0.87,0.177-1.28,0.177
		c-1.255,0-2.242-0.361-2.965-1.085c-0.725-0.734-1.088-1.734-1.088-2.998c0-0.81,0.158-1.528,0.472-2.155
		c0.324-0.626,0.771-1.112,1.346-1.458c0.582-0.346,1.24-0.518,1.977-0.518c1.058,0,1.896,0.339,2.51,1.02
		c0.617,0.68,0.926,1.599,0.926,2.754c0,0.433-0.194,0.648-0.584,0.648h-5.008c0.109,1.675,0.913,2.511,2.415,2.511
		c0.399,0,0.743-0.054,1.037-0.161c0.291-0.108,0.6-0.249,0.922-0.422c0.033-0.021,0.12-0.064,0.26-0.129
		C620.727,137.332,620.85,137.293,620.949,137.293z M618.129,132.384c-0.626,0-1.129,0.2-1.507,0.6
		c-0.378,0.4-0.604,0.963-0.681,1.686h4.182c-0.032-0.735-0.222-1.297-0.568-1.686C619.22,132.584,618.745,132.384,618.129,132.384z
		"/>
	<path fill="#101228" d="M628.483,131.218c0.52-0.032,0.778,0.189,0.778,0.664c0,0.238-0.06,0.416-0.179,0.536
		c-0.12,0.118-0.325,0.188-0.614,0.209l-0.487,0.049c-0.681,0.064-1.189,0.303-1.523,0.713c-0.324,0.41-0.485,0.907-0.485,1.49
		v3.711c0,0.258-0.078,0.453-0.228,0.583c-0.15,0.13-0.346,0.194-0.583,0.194c-0.238,0-0.438-0.064-0.6-0.194
		c-0.152-0.13-0.227-0.325-0.227-0.583v-6.596c0-0.248,0.075-0.438,0.227-0.566c0.16-0.141,0.361-0.21,0.6-0.21
		c0.215,0,0.395,0.07,0.536,0.21c0.149,0.129,0.224,0.313,0.224,0.551v0.777c0.217-0.476,0.53-0.837,0.94-1.085
		c0.411-0.249,0.876-0.394,1.395-0.437L628.483,131.218z"/>
	
		<path opacity="0.75" fill="none" stroke="#101228" stroke-width="1.6325" stroke-linecap="round" stroke-linejoin="round" enable-background="new    " d="
		M619.21,146.832v13.863h-14.405 M604.804,160.694l5.24-5.04 M604.804,160.694l5.24,5.042"/>
	<g>
		
			<linearGradient id="SVGID_3_" gradientUnits="userSpaceOnUse" x1="421.3054" y1="416.9346" x2="421.3054" y2="469.0732" gradientTransform="matrix(1 0 0 1 -0.0303 -297.6016)">
			<stop  offset="0" style="stop-color:#FFFFFF"/>
			<stop  offset="1" style="stop-color:#D5D5D5"/>
		</linearGradient>
		<path fill="url(#SVGID_3_)" d="M386.162,119.334h70.228c4.113,0,7.446,3.334,7.446,7.447v37.243c0,4.113-3.333,7.448-7.446,7.448
			h-70.228c-4.113,0-7.447-3.335-7.447-7.448v-37.243C378.714,122.668,382.048,119.334,386.162,119.334z"/>
	</g>
	<g>
		
			<linearGradient id="SVGID_4_" gradientUnits="userSpaceOnUse" x1="306.3147" y1="416.8682" x2="306.3147" y2="469.1367" gradientTransform="matrix(1 0 0 1 -0.0303 -297.6016)">
			<stop  offset="0" style="stop-color:#FFFFFF"/>
			<stop  offset="1" style="stop-color:#D5D5D5"/>
		</linearGradient>
		<path fill="url(#SVGID_4_)" d="M253.251,119.268h106.067c4.113,0,7.447,3.335,7.447,7.449v37.371c0,4.113-3.334,7.448-7.447,7.448
			H253.251c-4.113,0-7.447-3.335-7.447-7.448v-37.371C245.802,122.603,249.136,119.268,253.251,119.268z"/>
	</g>
	<path fill="#101228" d="M392.392,141.607c-0.297,0-0.545-0.089-0.737-0.272c-0.182-0.194-0.273-0.439-0.273-0.737v-11.105H387.5
		c-0.622,0-0.933-0.278-0.933-0.834c0-0.273,0.079-0.479,0.234-0.622c0.168-0.14,0.399-0.212,0.698-0.212h9.787
		c0.296,0,0.523,0.072,0.679,0.212c0.169,0.144,0.251,0.349,0.251,0.622c0,0.557-0.311,0.834-0.93,0.834h-3.885v11.105
		c0,0.298-0.09,0.543-0.271,0.737C392.948,141.518,392.704,141.607,392.392,141.607z"/>
	<path fill="#101228" d="M402.125,131.803c1.256,0,2.188,0.319,2.797,0.953c0.621,0.634,0.932,1.598,0.932,2.893v5.027
		c0,0.298-0.084,0.532-0.253,0.699c-0.168,0.157-0.401,0.234-0.7,0.234c-0.285,0-0.51-0.084-0.68-0.253
		c-0.168-0.168-0.25-0.394-0.25-0.679v-0.718c-0.246,0.544-0.615,0.964-1.109,1.263c-0.479,0.284-1.042,0.426-1.688,0.426
		c-0.622,0-1.19-0.122-1.708-0.37c-0.519-0.256-0.924-0.612-1.223-1.066c-0.286-0.453-0.428-0.957-0.428-1.513
		c0-0.687,0.175-1.224,0.524-1.612c0.362-0.402,0.95-0.687,1.767-0.854c0.826-0.168,1.96-0.253,3.397-0.253h0.444v-0.562
		c0-0.727-0.148-1.25-0.444-1.573c-0.298-0.324-0.776-0.486-1.437-0.486c-0.454,0-0.88,0.059-1.28,0.175
		c-0.401,0.118-0.841,0.284-1.321,0.504c-0.348,0.193-0.596,0.291-0.737,0.291c-0.195,0-0.356-0.071-0.485-0.213
		c-0.117-0.142-0.175-0.323-0.175-0.543c0-0.193,0.051-0.364,0.155-0.504c0.116-0.157,0.295-0.306,0.544-0.448
		c0.452-0.246,0.983-0.44,1.59-0.582C400.967,131.879,401.556,131.803,402.125,131.803z M401.524,140.19
		c0.709,0,1.294-0.239,1.746-0.719c0.454-0.491,0.68-1.12,0.68-1.883v-0.504h-0.347c-1.013,0-1.788,0.045-2.33,0.135
		c-0.544,0.089-0.933,0.246-1.165,0.466c-0.235,0.207-0.35,0.511-0.35,0.913c0,0.465,0.167,0.847,0.505,1.145
		C400.597,140.041,401.019,140.19,401.524,140.19z"/>
	<path fill="#101228" d="M413.609,131.31c0.826,0,1.557,0.202,2.194,0.603c0.633,0.401,1.122,0.972,1.474,1.708
		c0.363,0.737,0.544,1.598,0.544,2.582c0,0.971-0.181,1.831-0.544,2.581c-0.351,0.753-0.847,1.334-1.495,1.749
		c-0.634,0.415-1.359,0.62-2.171,0.62c-0.714,0-1.342-0.148-1.888-0.445c-0.541-0.311-0.956-0.751-1.239-1.32v0.777
		c0,0.284-0.092,0.517-0.273,0.698c-0.169,0.168-0.4,0.253-0.699,0.253c-0.298,0-0.537-0.084-0.718-0.253
		c-0.182-0.181-0.271-0.414-0.271-0.698v-11.999c0-0.285,0.09-0.511,0.271-0.679c0.193-0.169,0.441-0.253,0.736-0.253
		c0.287,0,0.512,0.084,0.681,0.253c0.182,0.155,0.273,0.368,0.273,0.64v4.971c0.284-0.57,0.699-1.011,1.239-1.322
		C412.268,131.465,412.896,131.31,413.609,131.31z M413.143,139.6c0.84,0,1.492-0.297,1.958-0.893
		c0.479-0.596,0.719-1.43,0.719-2.504c0-1.062-0.235-1.877-0.699-2.446c-0.465-0.582-1.126-0.872-1.979-0.872
		c-0.855,0-1.514,0.29-1.98,0.872c-0.454,0.583-0.679,1.411-0.679,2.485s0.225,1.903,0.679,2.486
		C411.629,139.31,412.288,139.6,413.143,139.6z"/>
	<path fill="#101228" d="M259.384,141.824c-0.984,0-1.922-0.134-2.815-0.406c-0.88-0.273-1.585-0.648-2.117-1.126
		c-0.245-0.207-0.368-0.474-0.368-0.797c0-0.232,0.066-0.426,0.195-0.582c0.129-0.169,0.285-0.252,0.465-0.252
		c0.182,0,0.401,0.083,0.661,0.252c1.151,0.854,2.465,1.281,3.94,1.281c1.036,0,1.832-0.194,2.389-0.583
		c0.557-0.387,0.834-0.945,0.834-1.668c0-0.57-0.258-0.997-0.775-1.281c-0.519-0.285-1.347-0.558-2.486-0.817
		c-1.085-0.233-1.979-0.499-2.678-0.796c-0.7-0.298-1.25-0.698-1.651-1.204c-0.388-0.516-0.582-1.171-0.582-1.96
		c0-0.79,0.213-1.488,0.642-2.097c0.439-0.622,1.047-1.101,1.824-1.437c0.775-0.35,1.662-0.524,2.659-0.524
		c0.918,0,1.767,0.13,2.543,0.388c0.776,0.259,1.437,0.641,1.98,1.147c0.259,0.218,0.39,0.484,0.39,0.795
		c0,0.22-0.073,0.414-0.215,0.582c-0.13,0.168-0.285,0.252-0.465,0.252c-0.168,0-0.383-0.084-0.641-0.252
		c-0.596-0.454-1.159-0.777-1.689-0.971c-0.518-0.205-1.146-0.311-1.883-0.311c-0.998,0-1.773,0.208-2.33,0.622
		c-0.556,0.401-0.836,0.964-0.836,1.688c0,0.622,0.246,1.094,0.738,1.417c0.493,0.311,1.282,0.596,2.37,0.855
		c1.139,0.259,2.058,0.531,2.758,0.816c0.709,0.272,1.275,0.653,1.688,1.145c0.427,0.478,0.642,1.099,0.642,1.865
		c0,0.775-0.221,1.468-0.66,2.076c-0.428,0.596-1.035,1.061-1.824,1.399C261.306,141.663,260.406,141.824,259.384,141.824z"/>
	<path fill="#101228" d="M271.925,131.961c2.252,0,3.378,1.276,3.378,3.826v5.047c0,0.285-0.09,0.511-0.271,0.679
		c-0.183,0.168-0.421,0.251-0.718,0.251c-0.298,0-0.537-0.083-0.719-0.251c-0.167-0.168-0.252-0.394-0.252-0.679v-5.028
		c0-0.777-0.162-1.346-0.484-1.708c-0.311-0.364-0.803-0.545-1.476-0.545c-0.79,0-1.425,0.248-1.903,0.739
		c-0.48,0.492-0.72,1.151-0.72,1.979v4.563c0,0.285-0.089,0.511-0.271,0.679c-0.167,0.168-0.4,0.251-0.699,0.251
		c-0.298,0-0.537-0.083-0.718-0.251c-0.181-0.168-0.272-0.394-0.272-0.679v-12.017c0-0.286,0.091-0.512,0.272-0.681
		c0.194-0.167,0.441-0.252,0.737-0.252c0.286,0,0.512,0.084,0.679,0.252c0.182,0.155,0.271,0.37,0.271,0.641v4.854
		c0.326-0.543,0.757-0.958,1.302-1.243C270.604,132.104,271.226,131.961,271.925,131.961z"/>
	<path fill="#101228" d="M278.975,141.765c-0.285,0-0.525-0.075-0.719-0.232c-0.181-0.154-0.271-0.388-0.271-0.699v-7.883
		c0-0.311,0.09-0.543,0.271-0.699c0.194-0.167,0.436-0.252,0.719-0.252c0.285,0,0.518,0.084,0.7,0.252
		c0.181,0.156,0.271,0.388,0.271,0.699v7.883c0,0.311-0.091,0.544-0.271,0.699C279.493,141.689,279.26,141.765,278.975,141.765z
		 M278.975,130.098c-0.375,0-0.673-0.103-0.893-0.311s-0.331-0.479-0.331-0.815c0-0.337,0.11-0.602,0.331-0.798
		c0.22-0.205,0.518-0.311,0.893-0.311c0.362,0,0.654,0.105,0.874,0.311c0.233,0.196,0.349,0.46,0.349,0.798
		c0,0.335-0.111,0.607-0.331,0.815S279.35,130.098,278.975,130.098z"/>
	<path fill="#101228" d="M287.152,129.477c-0.648,0.051-1.125,0.259-1.437,0.622c-0.311,0.348-0.466,0.867-0.466,1.554v0.543h1.922
		c0.271,0,0.479,0.07,0.622,0.213c0.155,0.129,0.234,0.311,0.234,0.543s-0.079,0.421-0.234,0.564
		c-0.143,0.128-0.35,0.195-0.622,0.195h-1.922v7.104c0,0.31-0.096,0.549-0.291,0.718c-0.182,0.157-0.415,0.232-0.7,0.232
		c-0.285,0-0.518-0.075-0.7-0.232c-0.182-0.169-0.271-0.409-0.271-0.718v-7.104h-1.166c-0.271,0-0.486-0.066-0.64-0.195
		c-0.143-0.143-0.214-0.332-0.214-0.564s0.071-0.414,0.214-0.543c0.154-0.143,0.369-0.213,0.64-0.213h1.166v-0.252
		c0-1.191,0.304-2.124,0.913-2.797c0.608-0.685,1.47-1.067,2.584-1.145l0.503-0.04c0.415-0.025,0.712,0.02,0.895,0.136
		c0.193,0.116,0.29,0.305,0.29,0.564c0,0.453-0.271,0.712-0.815,0.777L287.152,129.477z"/>
	<path fill="#101228" d="M293.47,140.27c0.284,0.027,0.484,0.106,0.6,0.234c0.131,0.116,0.194,0.285,0.194,0.505
		c0,0.259-0.104,0.459-0.311,0.602c-0.195,0.13-0.484,0.181-0.874,0.154l-0.524-0.037c-1.048-0.078-1.831-0.396-2.349-0.953
		c-0.518-0.569-0.777-1.404-0.777-2.504v-4.561h-1.165c-0.57,0-0.854-0.254-0.854-0.759c0-0.232,0.071-0.414,0.213-0.543
		c0.155-0.143,0.37-0.213,0.641-0.213h1.165v-2c0-0.298,0.084-0.531,0.252-0.7c0.182-0.167,0.421-0.252,0.718-0.252
		c0.298,0,0.537,0.085,0.719,0.252c0.181,0.168,0.272,0.401,0.272,0.7v2h1.922c0.272,0,0.479,0.07,0.62,0.213
		c0.156,0.129,0.234,0.311,0.234,0.543c0,0.247-0.078,0.433-0.234,0.564c-0.142,0.128-0.348,0.195-0.62,0.195h-1.922v4.698
		c0,0.606,0.122,1.054,0.368,1.338c0.259,0.285,0.647,0.447,1.165,0.485L293.47,140.27z"/>
	
		<path opacity="0.75" fill="none" stroke="#101228" stroke-width="1.2739" stroke-linecap="round" stroke-linejoin="round" enable-background="new    " d="
		M389.354,156.575h39.368 M428.722,156.575l-7.047-7.449 M428.722,156.575l-7.047,7.448 M428.722,156.575v-7.449v14.897"/>
	
		<path opacity="0.75" fill="none" stroke="#101228" stroke-width="1.2739" stroke-linecap="round" stroke-linejoin="round" enable-background="new    " d="
		M261.482,158.097v5.227h7.467v-5.227h3.734l-7.467-8.214l-7.467,8.214H261.482z"/>
	<g>
		<path fill="#FFFFFF" d="M102.358,197.885h2.556l-5.21,11.593h-2.035l-5.21-11.593h2.638l3.615,8.418L102.358,197.885z"/>
		<path fill="#FFFFFF" d="M106.323,209.087c-0.657-0.348-1.162-0.847-1.514-1.498s-0.529-1.411-0.529-2.279
			c0-0.869,0.177-1.629,0.529-2.28s0.857-1.15,1.514-1.498c0.657-0.347,1.425-0.521,2.304-0.521c0.868,0,1.628,0.174,2.28,0.521
			c0.651,0.348,1.153,0.847,1.506,1.498c0.353,0.651,0.529,1.411,0.529,2.28c0,0.868-0.177,1.628-0.529,2.279
			c-0.353,0.651-0.855,1.15-1.506,1.498c-0.651,0.348-1.412,0.521-2.28,0.521C107.747,209.607,106.979,209.435,106.323,209.087z
			 M110.019,207.133c0.32-0.401,0.48-1.01,0.48-1.823c0-0.804-0.16-1.409-0.48-1.815c-0.32-0.407-0.784-0.611-1.392-0.611
			c-0.619,0-1.091,0.204-1.417,0.611c-0.326,0.406-0.489,1.012-0.489,1.815c0,1.617,0.635,2.426,1.905,2.426
			C109.235,207.735,109.698,207.534,110.019,207.133z"/>
		<path fill="#FFFFFF" d="M114.52,209.478v-11.984h2.458v11.984H114.52z"/>
		<path fill="#FFFFFF" d="M127.335,201.223v7.881c0,1.313-0.38,2.312-1.14,2.995c-0.76,0.685-1.867,1.026-3.322,1.026
			c-1.313,0-2.453-0.255-3.419-0.766l0.375-1.823c0.999,0.499,1.986,0.749,2.963,0.749c0.706,0,1.232-0.166,1.58-0.497
			c0.347-0.331,0.521-0.833,0.521-1.506v-1.433c-0.261,0.401-0.625,0.735-1.091,1.001c-0.467,0.267-0.983,0.399-1.547,0.399
			c-0.716,0-1.352-0.171-1.905-0.514c-0.554-0.342-0.988-0.824-1.302-1.449c-0.315-0.624-0.473-1.343-0.473-2.157
			c0-0.813,0.157-1.533,0.473-2.157c0.314-0.624,0.749-1.107,1.302-1.449s1.189-0.513,1.905-0.513c0.575,0,1.096,0.125,1.563,0.374
			c0.467,0.25,0.825,0.587,1.075,1.01v-1.172H127.335z M124.38,206.783c0.342-0.396,0.513-0.947,0.513-1.653
			c0-0.694-0.168-1.24-0.505-1.636c-0.336-0.396-0.809-0.595-1.417-0.595s-1.085,0.198-1.433,0.595
			c-0.348,0.396-0.521,0.941-0.521,1.636c0,0.695,0.174,1.243,0.521,1.645c0.347,0.402,0.825,0.603,1.433,0.603
			C123.568,207.377,124.037,207.179,124.38,206.783z"/>
		<path fill="#FFFFFF" d="M136.713,205.554h-5.438c0.043,0.771,0.244,1.332,0.603,1.685c0.358,0.354,0.89,0.529,1.596,0.529
			c0.423,0,0.847-0.07,1.27-0.211c0.423-0.142,0.814-0.348,1.172-0.619l0.651,1.661c-0.391,0.314-0.877,0.562-1.458,0.74
			c-0.581,0.18-1.164,0.269-1.75,0.269c-1.389,0-2.48-0.382-3.272-1.147c-0.792-0.766-1.189-1.81-1.189-3.135
			c0-0.835,0.171-1.582,0.513-2.238c0.342-0.657,0.822-1.167,1.441-1.531c0.619-0.363,1.319-0.545,2.101-0.545
			c1.161,0,2.079,0.377,2.751,1.132c0.673,0.754,1.01,1.771,1.01,3.053V205.554z M131.885,203.144
			c-0.288,0.271-0.475,0.668-0.562,1.188h3.273c-0.13-1.063-0.657-1.596-1.58-1.596C132.55,202.736,132.173,202.872,131.885,203.144
			z"/>
		<path fill="#FFFFFF" d="M146.287,204.479v4.999h-2.458v-4.885c0-0.575-0.106-0.996-0.318-1.262
			c-0.211-0.266-0.545-0.399-1.001-0.399c-0.543,0-0.977,0.174-1.303,0.521s-0.489,0.814-0.489,1.4v4.624h-2.458v-5.895
			c0-0.879-0.043-1.666-0.13-2.36h2.313l0.163,1.303c0.293-0.489,0.676-0.863,1.148-1.124s1.007-0.391,1.604-0.391
			C145.31,201.011,146.287,202.167,146.287,204.479z"/>
		<path fill="#FFFFFF" d="M156.512,197.493v11.984h-2.426v-1.221c-0.25,0.423-0.603,0.754-1.059,0.993
			c-0.456,0.238-0.972,0.357-1.547,0.357c-0.706,0-1.335-0.182-1.889-0.545s-0.985-0.874-1.294-1.53
			c-0.31-0.657-0.464-1.409-0.464-2.256s0.155-1.593,0.464-2.238c0.309-0.646,0.738-1.146,1.286-1.498s1.181-0.529,1.897-0.529
			c0.554,0,1.059,0.116,1.514,0.35c0.456,0.234,0.809,0.557,1.059,0.969v-4.836H156.512z M153.598,207.108
			c0.326-0.418,0.489-1.018,0.489-1.799c0-0.771-0.166-1.365-0.497-1.783s-0.795-0.627-1.392-0.627c-0.608,0-1.08,0.206-1.417,0.619
			c-0.336,0.412-0.505,0.998-0.505,1.758c0,0.782,0.168,1.387,0.505,1.815c0.336,0.43,0.809,0.644,1.417,0.644
			S153.272,207.526,153.598,207.108z"/>
		<path fill="#FFFFFF" d="M165.907,205.554h-5.438c0.043,0.771,0.244,1.332,0.603,1.685c0.358,0.354,0.89,0.529,1.596,0.529
			c0.423,0,0.847-0.07,1.27-0.211c0.423-0.142,0.814-0.348,1.172-0.619l0.651,1.661c-0.391,0.314-0.877,0.562-1.458,0.74
			c-0.581,0.18-1.164,0.269-1.75,0.269c-1.389,0-2.48-0.382-3.272-1.147c-0.792-0.766-1.189-1.81-1.189-3.135
			c0-0.835,0.171-1.582,0.513-2.238c0.342-0.657,0.822-1.167,1.441-1.531c0.619-0.363,1.319-0.545,2.101-0.545
			c1.161,0,2.079,0.377,2.751,1.132c0.673,0.754,1.01,1.771,1.01,3.053V205.554z M161.08,203.144
			c-0.288,0.271-0.475,0.668-0.562,1.188h3.273c-0.13-1.063-0.657-1.596-1.58-1.596C161.744,202.736,161.367,202.872,161.08,203.144
			z"/>
	</g>
	<g>
		<path fill="#FFFFFF" d="M339.02,197.202h2.556l-5.21,11.593h-2.035l-5.21-11.593h2.638l3.615,8.418L339.02,197.202z"/>
		<path fill="#FFFFFF" d="M342.985,208.404c-0.657-0.348-1.162-0.847-1.514-1.498s-0.529-1.411-0.529-2.279
			c0-0.869,0.177-1.629,0.529-2.28s0.857-1.15,1.514-1.498c0.657-0.347,1.425-0.521,2.304-0.521c0.868,0,1.628,0.174,2.28,0.521
			c0.651,0.348,1.153,0.847,1.506,1.498c0.353,0.651,0.529,1.411,0.529,2.28c0,0.868-0.177,1.628-0.529,2.279
			c-0.353,0.651-0.855,1.15-1.506,1.498c-0.651,0.348-1.412,0.521-2.28,0.521C344.409,208.925,343.641,208.752,342.985,208.404z
			 M346.681,206.45c0.32-0.401,0.48-1.01,0.48-1.823c0-0.804-0.16-1.409-0.48-1.815c-0.32-0.407-0.784-0.611-1.392-0.611
			c-0.619,0-1.091,0.204-1.417,0.611c-0.326,0.406-0.489,1.012-0.489,1.815c0,1.617,0.635,2.426,1.905,2.426
			C345.897,207.053,346.361,206.852,346.681,206.45z"/>
		<path fill="#FFFFFF" d="M356.865,200.507l-0.016,2.247c-0.402-0.185-0.804-0.276-1.205-0.276c-0.651,0-1.148,0.177-1.49,0.529
			s-0.513,0.844-0.513,1.474v4.314h-2.458V202.9c0-0.879-0.043-1.666-0.13-2.36h2.313l0.163,1.416
			c0.206-0.521,0.529-0.92,0.969-1.196c0.44-0.277,0.937-0.415,1.49-0.415C356.333,200.345,356.626,200.398,356.865,200.507z"/>
		<path fill="#FFFFFF" d="M357.777,196.664h2.622v2.313h-2.622V196.664z M357.858,208.795v-8.255h2.458v8.255H357.858z"/>
		<path fill="#FFFFFF" d="M370.673,200.54v7.881c0,1.313-0.381,2.312-1.14,2.995c-0.761,0.685-1.867,1.026-3.322,1.026
			c-1.313,0-2.453-0.255-3.419-0.766l0.374-1.823c0.999,0.499,1.986,0.749,2.964,0.749c0.705,0,1.231-0.166,1.579-0.497
			s0.521-0.833,0.521-1.506v-1.433c-0.261,0.401-0.625,0.735-1.091,1.001c-0.467,0.267-0.983,0.399-1.547,0.399
			c-0.717,0-1.352-0.171-1.905-0.514c-0.554-0.342-0.988-0.824-1.303-1.449c-0.315-0.624-0.472-1.343-0.472-2.157
			c0-0.813,0.157-1.533,0.472-2.157c0.314-0.624,0.749-1.107,1.303-1.449s1.188-0.513,1.905-0.513c0.575,0,1.096,0.125,1.563,0.374
			c0.467,0.25,0.825,0.587,1.075,1.01v-1.172H370.673z M367.718,206.101c0.342-0.396,0.513-0.947,0.513-1.653
			c0-0.694-0.169-1.24-0.505-1.636c-0.337-0.396-0.809-0.595-1.417-0.595c-0.607,0-1.085,0.198-1.433,0.595
			c-0.348,0.396-0.521,0.941-0.521,1.636c0,0.695,0.174,1.243,0.521,1.645c0.348,0.402,0.825,0.603,1.433,0.603
			C366.905,206.694,367.375,206.496,367.718,206.101z"/>
		<path fill="#FFFFFF" d="M380.051,204.871h-5.438c0.044,0.771,0.244,1.332,0.603,1.685c0.358,0.354,0.89,0.529,1.596,0.529
			c0.424,0,0.847-0.07,1.271-0.211c0.423-0.142,0.813-0.348,1.172-0.619l0.651,1.661c-0.391,0.314-0.877,0.562-1.457,0.74
			c-0.581,0.18-1.164,0.269-1.751,0.269c-1.389,0-2.48-0.382-3.272-1.147s-1.188-1.81-1.188-3.135c0-0.835,0.171-1.582,0.513-2.238
			c0.342-0.657,0.822-1.167,1.441-1.531c0.618-0.363,1.318-0.545,2.101-0.545c1.161,0,2.078,0.377,2.751,1.132
			c0.673,0.754,1.01,1.771,1.01,3.053V204.871z M375.223,202.461c-0.288,0.271-0.476,0.668-0.563,1.188h3.273
			c-0.131-1.063-0.657-1.596-1.58-1.596C375.887,202.054,375.51,202.189,375.223,202.461z"/>
	</g>
	<g>
		<path fill="#FFFFFF" d="M560.7,209.478l-1.107-2.572h-5.422l-1.107,2.572h-2.556l5.324-11.593h2.052l5.324,11.593H560.7z
			 M555.017,204.968h3.745l-1.872-4.348L555.017,204.968z"/>
		<path fill="#FFFFFF" d="M564.779,208.468c-0.766-0.76-1.148-1.796-1.148-3.109c0-0.857,0.185-1.615,0.554-2.271
			c0.369-0.657,0.888-1.167,1.555-1.531c0.668-0.363,1.441-0.545,2.32-0.545c0.598,0,1.178,0.092,1.742,0.276
			s1.016,0.435,1.352,0.749l-0.651,1.71c-0.325-0.261-0.684-0.464-1.074-0.61s-0.771-0.22-1.14-0.22
			c-0.674,0-1.197,0.203-1.571,0.61c-0.375,0.407-0.562,1.001-0.562,1.783c0,0.792,0.184,1.392,0.553,1.799s0.896,0.61,1.58,0.61
			c0.369,0,0.749-0.073,1.14-0.22s0.749-0.35,1.074-0.61l0.651,1.71c-0.358,0.314-0.825,0.562-1.4,0.74
			c-0.575,0.18-1.178,0.269-1.807,0.269C566.599,209.607,565.544,209.228,564.779,208.468z"/>
		<path fill="#FFFFFF" d="M575.5,203.063v3.207c0,0.456,0.119,0.79,0.358,1.002c0.238,0.212,0.548,0.317,0.928,0.317
			c0.239,0,0.511-0.038,0.814-0.114v1.905c-0.391,0.151-0.863,0.228-1.417,0.228c-1.021,0-1.799-0.287-2.336-0.862
			c-0.538-0.575-0.807-1.385-0.807-2.427v-3.256h-1.563v-1.84h1.563v-1.938l2.459-0.798v2.735h2.101v1.84H575.5z"/>
		<path fill="#FFFFFF" d="M578.773,197.347h2.621v2.313h-2.621V197.347z M578.854,209.478v-8.255h2.459v8.255H578.854z"/>
		<path fill="#FFFFFF" d="M589.03,201.238h2.427l-3.631,8.239h-2.085l-3.582-8.239h2.573l2.116,5.341L589.03,201.238z"/>
		<path fill="#FFFFFF" d="M599.516,205.554h-5.438c0.043,0.771,0.244,1.332,0.602,1.685c0.358,0.354,0.891,0.529,1.596,0.529
			c0.424,0,0.847-0.07,1.271-0.211c0.423-0.142,0.814-0.348,1.172-0.619l0.651,1.661c-0.391,0.314-0.876,0.562-1.457,0.74
			c-0.581,0.18-1.164,0.269-1.75,0.269c-1.39,0-2.48-0.382-3.273-1.147c-0.792-0.766-1.188-1.81-1.188-3.135
			c0-0.835,0.171-1.582,0.513-2.238c0.343-0.657,0.822-1.167,1.441-1.531c0.619-0.363,1.319-0.545,2.101-0.545
			c1.161,0,2.078,0.377,2.752,1.132c0.673,0.754,1.009,1.771,1.009,3.053V205.554z M594.689,203.144
			c-0.288,0.271-0.476,0.668-0.562,1.188h3.272c-0.13-1.063-0.657-1.596-1.579-1.596
			C595.354,202.736,594.976,202.872,594.689,203.144z"/>
		<path fill="#FFFFFF" d="M606.746,201.189l-0.017,2.247c-0.401-0.185-0.803-0.276-1.204-0.276c-0.651,0-1.148,0.177-1.49,0.529
			s-0.513,0.844-0.513,1.474v4.314h-2.459v-5.895c0-0.879-0.043-1.666-0.13-2.36h2.312l0.163,1.416
			c0.206-0.521,0.529-0.92,0.969-1.196c0.439-0.277,0.937-0.415,1.49-0.415C606.214,201.027,606.507,201.081,606.746,201.189z"/>
		<path fill="#FFFFFF" d="M614.984,205.554h-5.438c0.043,0.771,0.244,1.332,0.602,1.685c0.358,0.354,0.891,0.529,1.596,0.529
			c0.424,0,0.847-0.07,1.271-0.211c0.423-0.142,0.814-0.348,1.172-0.619l0.651,1.661c-0.391,0.314-0.876,0.562-1.457,0.74
			c-0.581,0.18-1.164,0.269-1.75,0.269c-1.39,0-2.48-0.382-3.273-1.147c-0.792-0.766-1.188-1.81-1.188-3.135
			c0-0.835,0.171-1.582,0.513-2.238c0.343-0.657,0.822-1.167,1.441-1.531c0.619-0.363,1.319-0.545,2.101-0.545
			c1.161,0,2.078,0.377,2.752,1.132c0.673,0.754,1.009,1.771,1.009,3.053V205.554z M610.157,203.144
			c-0.288,0.271-0.476,0.668-0.562,1.188h3.272c-0.13-1.063-0.657-1.596-1.579-1.596
			C610.822,202.736,610.444,202.872,610.157,203.144z"/>
		<path fill="#FFFFFF" d="M624.558,204.479v4.999h-2.459v-4.885c0-0.575-0.105-0.996-0.317-1.262s-0.545-0.399-1.001-0.399
			c-0.543,0-0.978,0.174-1.303,0.521c-0.326,0.348-0.488,0.814-0.488,1.4v4.624h-2.459v-5.895c0-0.879-0.043-1.666-0.13-2.36h2.312
			l0.163,1.303c0.293-0.489,0.676-0.863,1.147-1.124c0.473-0.261,1.007-0.391,1.604-0.391
			C623.582,201.011,624.558,202.167,624.558,204.479z"/>
	</g>
</g>
<g id="Layer_4">
	<g>
		<path fill="#FFFFFF" d="M162.396,55.361c-0.942-0.534-1.668-1.299-2.178-2.295c-0.51-0.996-0.765-2.16-0.765-3.492
			c0-1.332,0.255-2.49,0.765-3.474c0.51-0.984,1.236-1.743,2.178-2.277c0.942-0.534,2.049-0.801,3.321-0.801
			s2.376,0.267,3.312,0.801c0.936,0.534,1.656,1.293,2.16,2.277c0.504,0.984,0.756,2.142,0.756,3.474
			c0,1.332-0.252,2.496-0.756,3.492c-0.504,0.996-1.224,1.761-2.16,2.295c-0.936,0.534-2.04,0.801-3.312,0.801
			S163.338,55.895,162.396,55.361z M168.246,52.832c0.606-0.756,0.909-1.842,0.909-3.258s-0.303-2.496-0.909-3.24
			c-0.606-0.744-1.449-1.116-2.529-1.116s-1.923,0.373-2.529,1.116c-0.606,0.744-0.909,1.824-0.909,3.24
			c0,1.428,0.303,2.517,0.909,3.267c0.606,0.75,1.449,1.125,2.529,1.125S167.64,53.588,168.246,52.832z"/>
		<path fill="#FFFFFF" d="M181.63,47.243c0.612,0.402,1.089,0.969,1.431,1.701c0.342,0.732,0.513,1.566,0.513,2.502
			s-0.168,1.761-0.504,2.475c-0.336,0.714-0.81,1.263-1.422,1.647c-0.612,0.384-1.314,0.576-2.106,0.576
			c-0.636,0-1.206-0.132-1.71-0.396c-0.504-0.264-0.888-0.63-1.152-1.098v5.238h-2.718V49.484c0-0.972-0.048-1.842-0.144-2.61h2.556
			l0.18,1.512c0.24-0.54,0.627-0.966,1.161-1.278c0.534-0.312,1.143-0.468,1.827-0.468C180.322,46.64,181.017,46.841,181.63,47.243z
			 M180.316,53.399c0.36-0.45,0.54-1.101,0.54-1.953c0-0.852-0.183-1.518-0.549-1.998s-0.879-0.72-1.539-0.72
			c-0.672,0-1.191,0.231-1.557,0.693c-0.366,0.462-0.549,1.125-0.549,1.989c0,0.864,0.183,1.524,0.549,1.98
			c0.366,0.456,0.885,0.684,1.557,0.684S179.955,53.849,180.316,53.399z"/>
		<path fill="#FFFFFF" d="M194.464,42.752V56h-2.682v-1.35c-0.276,0.468-0.666,0.834-1.17,1.098s-1.074,0.396-1.71,0.396
			c-0.78,0-1.476-0.201-2.088-0.603c-0.612-0.402-1.089-0.966-1.431-1.692c-0.342-0.726-0.513-1.557-0.513-2.493
			s0.171-1.761,0.513-2.475c0.342-0.714,0.816-1.266,1.422-1.656s1.305-0.585,2.097-0.585c0.612,0,1.17,0.129,1.674,0.387
			c0.504,0.258,0.894,0.615,1.17,1.071v-5.346H194.464z M191.241,53.381c0.36-0.462,0.54-1.125,0.54-1.989
			c0-0.852-0.183-1.509-0.549-1.971c-0.366-0.462-0.879-0.693-1.539-0.693c-0.672,0-1.194,0.228-1.566,0.684
			s-0.558,1.104-0.558,1.944c0,0.864,0.186,1.533,0.558,2.007c0.372,0.475,0.894,0.711,1.566,0.711
			C190.365,54.074,190.882,53.843,191.241,53.381z"/>
		<path fill="#FFFFFF" d="M202.941,46.838l-0.018,2.484c-0.444-0.204-0.888-0.306-1.332-0.306c-0.72,0-1.269,0.195-1.647,0.585
			c-0.378,0.39-0.567,0.933-0.567,1.629V56h-2.718v-6.516c0-0.972-0.048-1.842-0.144-2.61h2.556l0.18,1.566
			c0.228-0.576,0.585-1.017,1.071-1.323c0.486-0.306,1.035-0.459,1.647-0.459C202.353,46.658,202.677,46.718,202.941,46.838z"/>
		<path fill="#FFFFFF" d="M213.003,46.874V56h-2.682v-1.35c-0.276,0.468-0.666,0.834-1.17,1.098s-1.074,0.396-1.71,0.396
			c-0.792,0-1.491-0.192-2.097-0.576c-0.606-0.384-1.08-0.933-1.422-1.647c-0.342-0.714-0.513-1.539-0.513-2.475
			s0.171-1.77,0.513-2.502c0.342-0.731,0.819-1.299,1.431-1.701c0.612-0.402,1.308-0.603,2.088-0.603
			c0.636,0,1.206,0.138,1.71,0.414s0.894,0.648,1.17,1.116v-1.296H213.003z M209.781,53.39c0.36-0.456,0.54-1.116,0.54-1.98
			c0-0.864-0.18-1.527-0.54-1.989c-0.36-0.462-0.876-0.693-1.548-0.693c-0.672,0-1.194,0.24-1.566,0.72s-0.558,1.146-0.558,1.998
			c0,0.853,0.183,1.503,0.549,1.953c0.366,0.45,0.891,0.675,1.575,0.675C208.905,54.074,209.421,53.846,209.781,53.39z"/>
		<path fill="#FFFFFF" d="M216.018,54.884c-0.846-0.84-1.269-1.986-1.269-3.438c0-0.948,0.204-1.785,0.612-2.511
			c0.408-0.726,0.981-1.29,1.719-1.692s1.593-0.603,2.565-0.603c0.66,0,1.302,0.102,1.926,0.306c0.624,0.205,1.122,0.48,1.494,0.828
			l-0.72,1.89c-0.36-0.288-0.756-0.513-1.188-0.675c-0.432-0.162-0.853-0.243-1.26-0.243c-0.744,0-1.323,0.225-1.737,0.675
			c-0.414,0.45-0.621,1.107-0.621,1.971c0,0.876,0.204,1.539,0.612,1.989c0.408,0.45,0.99,0.675,1.746,0.675
			c0.408,0,0.828-0.081,1.26-0.243c0.432-0.162,0.828-0.387,1.188-0.675l0.72,1.89c-0.396,0.348-0.912,0.621-1.548,0.819
			c-0.636,0.198-1.302,0.297-1.998,0.297C218.031,56.144,216.864,55.724,216.018,54.884z"/>
		<path fill="#FFFFFF" d="M233.235,50.474V56h-2.718v-5.4c0-0.636-0.117-1.101-0.351-1.395c-0.234-0.294-0.603-0.441-1.107-0.441
			c-0.6,0-1.08,0.192-1.44,0.576c-0.36,0.384-0.54,0.9-0.54,1.548V56h-2.718V42.752h2.718v5.364c0.324-0.48,0.738-0.846,1.242-1.098
			s1.062-0.378,1.674-0.378C232.155,46.64,233.235,47.918,233.235,50.474z"/>
		<path fill="#FFFFFF" d="M238.815,48.908v3.546c0,0.504,0.132,0.873,0.396,1.107c0.264,0.234,0.606,0.351,1.026,0.351
			c0.264,0,0.564-0.042,0.9-0.126v2.106c-0.432,0.168-0.954,0.252-1.566,0.252c-1.128,0-1.989-0.318-2.583-0.954
			c-0.594-0.636-0.891-1.53-0.891-2.682v-3.6h-1.728v-2.034h1.728v-2.142l2.718-0.882v3.024h2.322v2.034H238.815z"/>
		<path fill="#FFFFFF" d="M242.396,47.072h2.934v2.898h-2.934V47.072z M242.396,53.102h2.934V56h-2.934V53.102z"/>
		<path fill="#FFFFFF" d="M252.386,56V42.752h2.718V56H252.386z"/>
		<path fill="#FFFFFF" d="M266.03,46.874V56h-2.646v-1.332c-0.288,0.48-0.666,0.846-1.134,1.098
			c-0.468,0.252-0.996,0.378-1.584,0.378c-1.14,0-1.992-0.318-2.556-0.954c-0.564-0.636-0.846-1.596-0.846-2.88v-5.436h2.718v5.49
			c0,1.104,0.474,1.656,1.422,1.656c0.564,0,1.02-0.192,1.368-0.576c0.348-0.384,0.522-0.888,0.522-1.512v-5.058H266.03z"/>
		<path fill="#FFFFFF" d="M268.135,42.59h2.898v2.556h-2.898V42.59z M268.226,56v-9.126h2.718V56H268.226z"/>
		<path fill="#FFFFFF" d="M272.563,55.028l0.72-1.89c0.479,0.348,1.014,0.615,1.602,0.801c0.587,0.186,1.188,0.279,1.8,0.279
			c0.468,0,0.828-0.072,1.08-0.216s0.378-0.354,0.378-0.63c0-0.228-0.09-0.408-0.27-0.54c-0.18-0.132-0.498-0.246-0.954-0.342
			l-1.494-0.342c-0.876-0.192-1.521-0.498-1.935-0.918c-0.414-0.42-0.621-0.978-0.621-1.674c0-0.564,0.165-1.068,0.495-1.512
			c0.33-0.444,0.789-0.789,1.377-1.035c0.588-0.246,1.266-0.369,2.034-0.369c0.648,0,1.284,0.099,1.908,0.297
			c0.624,0.198,1.182,0.477,1.674,0.837l-0.756,1.818c-0.468-0.324-0.945-0.57-1.431-0.738c-0.486-0.168-0.957-0.252-1.413-0.252
			c-0.444,0-0.792,0.078-1.044,0.234c-0.252,0.156-0.378,0.372-0.378,0.648c0,0.204,0.075,0.369,0.225,0.495
			c0.15,0.126,0.417,0.231,0.801,0.315l1.53,0.342c0.936,0.216,1.614,0.54,2.034,0.972c0.42,0.432,0.63,1.008,0.63,1.728
			c0,0.864-0.348,1.548-1.044,2.052c-0.696,0.504-1.65,0.756-2.862,0.756C274.921,56.144,273.559,55.772,272.563,55.028z"/>
		<path fill="#FFFFFF" d="M285.541,48.908v3.546c0,0.504,0.132,0.873,0.396,1.107c0.264,0.234,0.606,0.351,1.026,0.351
			c0.264,0,0.564-0.042,0.9-0.126v2.106c-0.432,0.168-0.954,0.252-1.566,0.252c-1.128,0-1.989-0.318-2.583-0.954
			c-0.594-0.636-0.891-1.53-0.891-2.682v-3.6h-1.728v-2.034h1.728v-2.142l2.718-0.882v3.024h2.322v2.034H285.541z"/>
		<path fill="#FFFFFF" d="M297.439,51.662h-6.012c0.048,0.852,0.27,1.473,0.666,1.863c0.396,0.39,0.984,0.585,1.764,0.585
			c0.468,0,0.936-0.078,1.404-0.234c0.468-0.156,0.9-0.384,1.296-0.684l0.72,1.836c-0.432,0.348-0.969,0.621-1.611,0.819
			c-0.642,0.198-1.287,0.297-1.935,0.297c-1.536,0-2.742-0.423-3.618-1.269s-1.314-2.001-1.314-3.465
			c0-0.924,0.189-1.749,0.567-2.475s0.909-1.29,1.593-1.692s1.458-0.603,2.322-0.603c1.284,0,2.298,0.417,3.042,1.251
			s1.116,1.959,1.116,3.375V51.662z M292.102,48.998c-0.318,0.3-0.525,0.738-0.621,1.314h3.618
			c-0.144-1.176-0.727-1.764-1.746-1.764C292.837,48.548,292.42,48.698,292.102,48.998z"/>
		<path fill="#FFFFFF" d="M305.431,46.838l-0.018,2.484c-0.444-0.204-0.888-0.306-1.332-0.306c-0.72,0-1.269,0.195-1.647,0.585
			c-0.378,0.39-0.567,0.933-0.567,1.629V56h-2.718v-6.516c0-0.972-0.048-1.842-0.144-2.61h2.556l0.18,1.566
			c0.228-0.576,0.585-1.017,1.071-1.323c0.486-0.306,1.035-0.459,1.647-0.459C304.843,46.658,305.167,46.718,305.431,46.838z"/>
		<path fill="#FFFFFF" d="M320.461,50.474V56h-2.718v-5.4c0-0.636-0.117-1.101-0.351-1.395c-0.234-0.294-0.603-0.441-1.107-0.441
			c-0.6,0-1.08,0.192-1.44,0.576c-0.36,0.384-0.54,0.9-0.54,1.548V56h-2.718v-6.516c0-0.972-0.048-1.842-0.144-2.61h2.556l0.18,1.44
			c0.324-0.54,0.747-0.954,1.269-1.242c0.522-0.288,1.113-0.432,1.773-0.432C319.381,46.64,320.461,47.918,320.461,50.474z"/>
		<path fill="#FFFFFF" d="M331.764,46.874V56h-2.682v-1.35c-0.276,0.468-0.666,0.834-1.17,1.098s-1.074,0.396-1.71,0.396
			c-0.792,0-1.491-0.192-2.097-0.576c-0.606-0.384-1.08-0.933-1.422-1.647c-0.342-0.714-0.513-1.539-0.513-2.475
			s0.171-1.77,0.513-2.502c0.342-0.731,0.819-1.299,1.431-1.701c0.612-0.402,1.308-0.603,2.088-0.603
			c0.636,0,1.206,0.138,1.71,0.414s0.894,0.648,1.17,1.116v-1.296H331.764z M328.542,53.39c0.36-0.456,0.54-1.116,0.54-1.98
			c0-0.864-0.18-1.527-0.54-1.989c-0.36-0.462-0.876-0.693-1.548-0.693c-0.672,0-1.194,0.24-1.566,0.72s-0.558,1.146-0.558,1.998
			c0,0.853,0.183,1.503,0.549,1.953c0.366,0.45,0.891,0.675,1.575,0.675C327.666,54.074,328.182,53.846,328.542,53.39z"/>
		<path fill="#FFFFFF" d="M343.104,46.874V56h-2.682v-1.35c-0.276,0.468-0.666,0.834-1.17,1.098s-1.074,0.396-1.71,0.396
			c-0.792,0-1.491-0.192-2.097-0.576c-0.606-0.384-1.08-0.933-1.422-1.647c-0.342-0.714-0.513-1.539-0.513-2.475
			s0.171-1.77,0.513-2.502c0.342-0.731,0.819-1.299,1.431-1.701c0.612-0.402,1.308-0.603,2.088-0.603
			c0.636,0,1.206,0.138,1.71,0.414s0.894,0.648,1.17,1.116v-1.296H343.104z M339.882,53.39c0.36-0.456,0.54-1.116,0.54-1.98
			c0-0.864-0.18-1.527-0.54-1.989c-0.36-0.462-0.876-0.693-1.548-0.693c-0.672,0-1.194,0.24-1.566,0.72s-0.558,1.146-0.558,1.998
			c0,0.853,0.183,1.503,0.549,1.953c0.366,0.45,0.891,0.675,1.575,0.675C339.006,54.074,339.522,53.846,339.882,53.39z"/>
		<path fill="#FFFFFF" d="M351.582,46.838l-0.018,2.484c-0.444-0.204-0.888-0.306-1.332-0.306c-0.72,0-1.269,0.195-1.647,0.585
			c-0.378,0.39-0.567,0.933-0.567,1.629V56H345.3v-6.516c0-0.972-0.048-1.842-0.144-2.61h2.556l0.18,1.566
			c0.228-0.576,0.585-1.017,1.071-1.323c0.486-0.306,1.035-0.459,1.647-0.459C350.994,46.658,351.318,46.718,351.582,46.838z"/>
		<path fill="#FFFFFF" d="M366.883,42.752V56H364.2v-1.35c-0.276,0.468-0.666,0.834-1.17,1.098s-1.074,0.396-1.71,0.396
			c-0.78,0-1.476-0.201-2.088-0.603c-0.612-0.402-1.089-0.966-1.431-1.692c-0.342-0.726-0.513-1.557-0.513-2.493
			s0.171-1.761,0.513-2.475c0.342-0.714,0.816-1.266,1.422-1.656s1.305-0.585,2.097-0.585c0.612,0,1.17,0.129,1.674,0.387
			c0.504,0.258,0.895,0.615,1.17,1.071v-5.346H366.883z M363.66,53.381c0.359-0.462,0.54-1.125,0.54-1.989
			c0-0.852-0.183-1.509-0.549-1.971c-0.366-0.462-0.88-0.693-1.539-0.693c-0.672,0-1.194,0.228-1.566,0.684
			s-0.558,1.104-0.558,1.944c0,0.864,0.186,1.533,0.558,2.007c0.372,0.475,0.894,0.711,1.566,0.711
			C362.784,54.074,363.301,53.843,363.66,53.381z"/>
		<path fill="#FFFFFF" d="M377.267,51.662h-6.012c0.048,0.852,0.27,1.473,0.666,1.863c0.396,0.39,0.984,0.585,1.764,0.585
			c0.469,0,0.937-0.078,1.404-0.234c0.469-0.156,0.9-0.384,1.296-0.684l0.72,1.836c-0.432,0.348-0.969,0.621-1.61,0.819
			c-0.642,0.198-1.287,0.297-1.935,0.297c-1.537,0-2.742-0.423-3.619-1.269c-0.875-0.846-1.313-2.001-1.313-3.465
			c0-0.924,0.188-1.749,0.567-2.475c0.377-0.726,0.908-1.29,1.593-1.692s1.458-0.603,2.321-0.603c1.285,0,2.299,0.417,3.043,1.251
			s1.115,1.959,1.115,3.375V51.662z M371.931,48.998c-0.318,0.3-0.525,0.738-0.621,1.314h3.617
			c-0.144-1.176-0.727-1.764-1.746-1.764C372.666,48.548,372.249,48.698,371.931,48.998z"/>
		<path fill="#FFFFFF" d="M390.353,46.892h2.682L389.021,56h-2.305l-3.959-9.108h2.844l2.34,5.904L390.353,46.892z"/>
		<path fill="#FFFFFF" d="M395.564,55.568c-0.727-0.384-1.284-0.936-1.674-1.656c-0.391-0.72-0.586-1.56-0.586-2.52
			s0.195-1.8,0.586-2.52c0.39-0.72,0.947-1.272,1.674-1.656c0.726-0.384,1.574-0.576,2.547-0.576c0.96,0,1.8,0.192,2.52,0.576
			c0.721,0.384,1.275,0.936,1.666,1.656c0.389,0.72,0.584,1.56,0.584,2.52s-0.195,1.8-0.584,2.52
			c-0.391,0.72-0.945,1.272-1.666,1.656c-0.72,0.384-1.56,0.576-2.52,0.576C397.138,56.144,396.29,55.952,395.564,55.568z
			 M399.65,53.408c0.354-0.444,0.531-1.116,0.531-2.016c0-0.888-0.178-1.557-0.531-2.007c-0.354-0.45-0.867-0.675-1.539-0.675
			c-0.684,0-1.206,0.225-1.566,0.675c-0.359,0.45-0.539,1.119-0.539,2.007c0,1.788,0.701,2.682,2.105,2.682
			C398.783,54.074,399.296,53.852,399.65,53.408z"/>
		<path fill="#FFFFFF" d="M406.436,55.568c-0.727-0.384-1.284-0.936-1.675-1.656c-0.39-0.72-0.584-1.56-0.584-2.52
			s0.194-1.8,0.584-2.52c0.391-0.72,0.948-1.272,1.675-1.656c0.726-0.384,1.575-0.576,2.547-0.576c0.96,0,1.8,0.192,2.521,0.576
			c0.719,0.384,1.274,0.936,1.664,1.656c0.391,0.72,0.586,1.56,0.586,2.52s-0.195,1.8-0.586,2.52
			c-0.39,0.72-0.945,1.272-1.664,1.656c-0.721,0.384-1.561,0.576-2.521,0.576C408.011,56.144,407.162,55.952,406.436,55.568z
			 M410.522,53.408c0.354-0.444,0.53-1.116,0.53-2.016c0-0.888-0.177-1.557-0.53-2.007c-0.354-0.45-0.867-0.675-1.539-0.675
			c-0.685,0-1.206,0.225-1.565,0.675c-0.361,0.45-0.541,1.119-0.541,2.007c0,1.788,0.702,2.682,2.106,2.682
			C409.655,54.074,410.168,53.852,410.522,53.408z"/>
		<path fill="#FFFFFF" d="M421.781,46.838l-0.019,2.484c-0.444-0.204-0.888-0.306-1.332-0.306c-0.72,0-1.269,0.195-1.647,0.585
			c-0.377,0.39-0.566,0.933-0.566,1.629V56h-2.718v-6.516c0-0.972-0.048-1.842-0.144-2.61h2.555l0.181,1.566
			c0.228-0.576,0.585-1.017,1.071-1.323c0.486-0.306,1.035-0.459,1.646-0.459C421.193,46.658,421.516,46.718,421.781,46.838z"/>
		<path fill="#FFFFFF" d="M422.879,56V42.752h2.718V56H422.879z"/>
		<path fill="#FFFFFF" d="M436,51.662h-6.012c0.048,0.852,0.27,1.473,0.666,1.863c0.396,0.39,0.984,0.585,1.764,0.585
			c0.469,0,0.937-0.078,1.404-0.234c0.469-0.156,0.9-0.384,1.296-0.684l0.72,1.836c-0.432,0.348-0.969,0.621-1.61,0.819
			c-0.642,0.198-1.287,0.297-1.935,0.297c-1.537,0-2.742-0.423-3.619-1.269c-0.875-0.846-1.313-2.001-1.313-3.465
			c0-0.924,0.188-1.749,0.567-2.475c0.377-0.726,0.908-1.29,1.593-1.692s1.458-0.603,2.321-0.603c1.285,0,2.299,0.417,3.043,1.251
			S436,49.85,436,51.266V51.662z M430.664,48.998c-0.318,0.3-0.525,0.738-0.621,1.314h3.617c-0.144-1.176-0.727-1.764-1.746-1.764
			C431.398,48.548,430.981,48.698,430.664,48.998z"/>
		<path fill="#FFFFFF" d="M445.9,51.662h-6.012c0.047,0.852,0.27,1.473,0.666,1.863c0.396,0.39,0.983,0.585,1.764,0.585
			c0.468,0,0.936-0.078,1.404-0.234c0.468-0.156,0.899-0.384,1.295-0.684l0.721,1.836c-0.432,0.348-0.969,0.621-1.611,0.819
			c-0.642,0.198-1.287,0.297-1.935,0.297c-1.536,0-2.742-0.423-3.618-1.269s-1.314-2.001-1.314-3.465
			c0-0.924,0.189-1.749,0.567-2.475s0.909-1.29,1.593-1.692c0.685-0.402,1.459-0.603,2.322-0.603c1.284,0,2.298,0.417,3.042,1.251
			s1.116,1.959,1.116,3.375V51.662z M440.563,48.998c-0.318,0.3-0.525,0.738-0.621,1.314h3.618
			c-0.145-1.176-0.727-1.764-1.746-1.764C441.299,48.548,440.881,48.698,440.563,48.998z"/>
		<path fill="#FFFFFF" d="M447.015,55.028l0.721-1.89c0.479,0.348,1.014,0.615,1.602,0.801s1.188,0.279,1.8,0.279
			c0.468,0,0.828-0.072,1.08-0.216s0.378-0.354,0.378-0.63c0-0.228-0.09-0.408-0.27-0.54c-0.181-0.132-0.498-0.246-0.955-0.342
			l-1.493-0.342c-0.876-0.192-1.521-0.498-1.935-0.918c-0.414-0.42-0.621-0.978-0.621-1.674c0-0.564,0.164-1.068,0.494-1.512
			c0.33-0.444,0.789-0.789,1.377-1.035c0.588-0.246,1.266-0.369,2.034-0.369c0.647,0,1.284,0.099,1.908,0.297
			c0.624,0.198,1.182,0.477,1.674,0.837l-0.756,1.818c-0.468-0.324-0.944-0.57-1.431-0.738s-0.957-0.252-1.413-0.252
			c-0.444,0-0.792,0.078-1.044,0.234c-0.252,0.156-0.379,0.372-0.379,0.648c0,0.204,0.075,0.369,0.226,0.495
			c0.149,0.126,0.417,0.231,0.801,0.315l1.53,0.342c0.936,0.216,1.613,0.54,2.034,0.972c0.42,0.432,0.63,1.008,0.63,1.728
			c0,0.864-0.348,1.548-1.044,2.052c-0.696,0.504-1.65,0.756-2.862,0.756C449.373,56.144,448.011,55.772,447.015,55.028z"/>
		<path fill="#FFFFFF" d="M456.07,55.028l0.72-1.89c0.479,0.348,1.014,0.615,1.603,0.801c0.587,0.186,1.188,0.279,1.799,0.279
			c0.469,0,0.828-0.072,1.08-0.216s0.379-0.354,0.379-0.63c0-0.228-0.09-0.408-0.271-0.54c-0.181-0.132-0.498-0.246-0.954-0.342
			l-1.494-0.342c-0.876-0.192-1.521-0.498-1.935-0.918c-0.414-0.42-0.621-0.978-0.621-1.674c0-0.564,0.165-1.068,0.495-1.512
			c0.33-0.444,0.789-0.789,1.377-1.035c0.588-0.246,1.266-0.369,2.033-0.369c0.648,0,1.285,0.099,1.908,0.297
			c0.625,0.198,1.182,0.477,1.674,0.837l-0.756,1.818c-0.467-0.324-0.944-0.57-1.431-0.738c-0.485-0.168-0.957-0.252-1.413-0.252
			c-0.443,0-0.792,0.078-1.044,0.234c-0.252,0.156-0.378,0.372-0.378,0.648c0,0.204,0.074,0.369,0.225,0.495
			s0.418,0.231,0.801,0.315l1.531,0.342c0.936,0.216,1.613,0.54,2.033,0.972s0.631,1.008,0.631,1.728
			c0,0.864-0.349,1.548-1.045,2.052c-0.695,0.504-1.65,0.756-2.861,0.756C458.427,56.144,457.066,55.772,456.07,55.028z"/>
		<path fill="#FFFFFF" d="M467.527,55.568c-0.727-0.384-1.285-0.936-1.675-1.656c-0.39-0.72-0.585-1.56-0.585-2.52
			s0.195-1.8,0.585-2.52c0.39-0.72,0.948-1.272,1.675-1.656c0.725-0.384,1.574-0.576,2.547-0.576c0.959,0,1.799,0.192,2.52,0.576
			c0.72,0.384,1.275,0.936,1.665,1.656c0.39,0.72,0.585,1.56,0.585,2.52s-0.195,1.8-0.585,2.52c-0.39,0.72-0.945,1.272-1.665,1.656
			c-0.721,0.384-1.561,0.576-2.52,0.576C469.101,56.144,468.252,55.952,467.527,55.568z M471.613,53.408
			c0.354-0.444,0.53-1.116,0.53-2.016c0-0.888-0.177-1.557-0.53-2.007c-0.355-0.45-0.867-0.675-1.539-0.675
			c-0.685,0-1.207,0.225-1.566,0.675c-0.36,0.45-0.54,1.119-0.54,2.007c0,1.788,0.702,2.682,2.106,2.682
			C470.746,54.074,471.258,53.852,471.613,53.408z"/>
		<path fill="#FFFFFF" d="M480.279,45.245c-0.252,0.234-0.378,0.609-0.378,1.125v0.504h1.908v2.034h-1.908V56h-2.718v-7.092h-1.711
			v-2.034h1.711v-0.576c0-1.152,0.293-2.046,0.882-2.682c0.588-0.636,1.44-0.954,2.556-0.954c0.624,0,1.141,0.078,1.549,0.234v2.124
			c-0.349-0.084-0.643-0.126-0.883-0.126C480.867,44.894,480.531,45.011,480.279,45.245z"/>
		<path fill="#FFFFFF" d="M486.308,48.908v3.546c0,0.504,0.133,0.873,0.396,1.107s0.605,0.351,1.027,0.351
			c0.264,0,0.563-0.042,0.898-0.126v2.106c-0.432,0.168-0.953,0.252-1.564,0.252c-1.129,0-1.99-0.318-2.584-0.954
			c-0.594-0.636-0.891-1.53-0.891-2.682v-3.6h-1.729v-2.034h1.729v-2.142l2.717-0.882v3.024h2.322v2.034H486.308z"/>
		<path fill="#FFFFFF" d="M502.491,46.874h2.628L501.429,56h-2.286l-2.07-5.292L495.094,56h-2.304l-3.69-9.126h2.772l2.195,5.886
			l2.179-5.886h1.854l2.196,5.94L502.491,46.874z"/>
		<path fill="#FFFFFF" d="M515.199,46.874V56h-2.683v-1.35c-0.275,0.468-0.666,0.834-1.17,1.098s-1.074,0.396-1.71,0.396
			c-0.792,0-1.491-0.192-2.097-0.576c-0.606-0.384-1.08-0.933-1.422-1.647c-0.342-0.714-0.513-1.539-0.513-2.475
			s0.171-1.77,0.513-2.502c0.342-0.731,0.819-1.299,1.431-1.701c0.612-0.402,1.308-0.603,2.088-0.603
			c0.636,0,1.206,0.138,1.71,0.414s0.895,0.648,1.17,1.116v-1.296H515.199z M511.976,53.39c0.36-0.456,0.54-1.116,0.54-1.98
			c0-0.864-0.18-1.527-0.54-1.989c-0.359-0.462-0.876-0.693-1.548-0.693s-1.194,0.24-1.565,0.72
			c-0.372,0.48-0.559,1.146-0.559,1.998c0,0.853,0.184,1.503,0.55,1.953c0.365,0.45,0.891,0.675,1.574,0.675
			C511.1,54.074,511.617,53.846,511.976,53.39z"/>
		<path fill="#FFFFFF" d="M523.677,46.838l-0.018,2.484c-0.444-0.204-0.889-0.306-1.332-0.306c-0.721,0-1.27,0.195-1.647,0.585
			c-0.378,0.39-0.566,0.933-0.566,1.629V56h-2.719v-6.516c0-0.972-0.048-1.842-0.144-2.61h2.556l0.181,1.566
			c0.228-0.576,0.585-1.017,1.07-1.323c0.486-0.306,1.035-0.459,1.647-0.459C523.089,46.658,523.413,46.718,523.677,46.838z"/>
		<path fill="#FFFFFF" d="M532.785,51.662h-6.012c0.048,0.852,0.27,1.473,0.666,1.863c0.396,0.39,0.983,0.585,1.764,0.585
			c0.468,0,0.936-0.078,1.404-0.234c0.468-0.156,0.899-0.384,1.296-0.684l0.72,1.836c-0.432,0.348-0.969,0.621-1.611,0.819
			c-0.642,0.198-1.287,0.297-1.935,0.297c-1.536,0-2.742-0.423-3.618-1.269s-1.313-2.001-1.313-3.465
			c0-0.924,0.188-1.749,0.566-2.475s0.909-1.29,1.593-1.692c0.685-0.402,1.458-0.603,2.322-0.603c1.284,0,2.298,0.417,3.042,1.251
			s1.116,1.959,1.116,3.375V51.662z M527.448,48.998c-0.318,0.3-0.525,0.738-0.621,1.314h3.618
			c-0.145-1.176-0.727-1.764-1.746-1.764C528.182,48.548,527.765,48.698,527.448,48.998z"/>
		<path fill="#FFFFFF" d="M547.743,51.662h-6.012c0.048,0.852,0.27,1.473,0.666,1.863c0.396,0.39,0.983,0.585,1.764,0.585
			c0.468,0,0.936-0.078,1.404-0.234c0.468-0.156,0.899-0.384,1.296-0.684l0.72,1.836c-0.432,0.348-0.969,0.621-1.611,0.819
			c-0.642,0.198-1.287,0.297-1.935,0.297c-1.536,0-2.742-0.423-3.618-1.269s-1.313-2.001-1.313-3.465
			c0-0.924,0.188-1.749,0.566-2.475s0.909-1.29,1.593-1.692c0.685-0.402,1.458-0.603,2.322-0.603c1.284,0,2.298,0.417,3.042,1.251
			s1.116,1.959,1.116,3.375V51.662z M542.406,48.998c-0.318,0.3-0.525,0.738-0.621,1.314h3.618
			c-0.145-1.176-0.727-1.764-1.746-1.764C543.14,48.548,542.723,48.698,542.406,48.998z"/>
		<path fill="#FFFFFF" d="M558.326,50.474V56h-2.718v-5.4c0-0.636-0.117-1.101-0.351-1.395c-0.234-0.294-0.604-0.441-1.107-0.441
			c-0.6,0-1.08,0.192-1.439,0.576c-0.36,0.384-0.54,0.9-0.54,1.548V56h-2.719v-6.516c0-0.972-0.048-1.842-0.144-2.61h2.556
			l0.181,1.44c0.323-0.54,0.746-0.954,1.269-1.242c0.522-0.288,1.113-0.432,1.773-0.432
			C557.246,46.64,558.326,47.918,558.326,50.474z"/>
		<path fill="#FFFFFF" d="M240.102,72.074V77.6h-2.718v-5.4c0-0.636-0.117-1.101-0.351-1.395c-0.234-0.294-0.603-0.441-1.107-0.441
			c-0.6,0-1.08,0.192-1.44,0.576c-0.36,0.384-0.54,0.9-0.54,1.548V77.6h-2.718v-6.516c0-0.972-0.048-1.842-0.144-2.61h2.556
			l0.18,1.44c0.324-0.54,0.747-0.954,1.269-1.242c0.522-0.288,1.113-0.432,1.773-0.432C239.022,68.24,240.102,69.518,240.102,72.074
			z"/>
		<path fill="#FFFFFF" d="M251.406,68.474V77.6h-2.682v-1.35c-0.276,0.468-0.666,0.834-1.17,1.098s-1.074,0.396-1.71,0.396
			c-0.792,0-1.491-0.192-2.097-0.576c-0.606-0.384-1.08-0.933-1.422-1.647c-0.342-0.714-0.513-1.539-0.513-2.475
			s0.171-1.77,0.513-2.502c0.342-0.731,0.819-1.299,1.431-1.701c0.612-0.402,1.308-0.603,2.088-0.603
			c0.636,0,1.206,0.138,1.71,0.414s0.894,0.648,1.17,1.116v-1.296H251.406z M248.183,74.99c0.36-0.456,0.54-1.116,0.54-1.98
			c0-0.864-0.18-1.527-0.54-1.989c-0.36-0.462-0.876-0.693-1.548-0.693c-0.672,0-1.194,0.24-1.566,0.72s-0.558,1.146-0.558,1.998
			c0,0.853,0.183,1.503,0.549,1.953c0.366,0.45,0.891,0.675,1.575,0.675C247.307,75.674,247.823,75.446,248.183,74.99z"/>
		<path fill="#FFFFFF" d="M259.919,68.492h2.682l-4.014,9.108h-2.304l-3.96-9.108h2.844l2.34,5.904L259.919,68.492z"/>
		<path fill="#FFFFFF" d="M263.411,64.19h2.898v2.556h-2.898V64.19z M263.501,77.6v-9.126h2.718V77.6H263.501z"/>
		<path fill="#FFFFFF" d="M277.667,68.474v8.712c0,1.452-0.42,2.556-1.26,3.312s-2.064,1.134-3.672,1.134
			c-1.452,0-2.712-0.282-3.78-0.846l0.414-2.016c1.104,0.552,2.196,0.828,3.276,0.828c0.78,0,1.362-0.183,1.746-0.549
			c0.384-0.366,0.576-0.921,0.576-1.665V75.8c-0.288,0.444-0.69,0.813-1.206,1.107s-1.086,0.441-1.71,0.441
			c-0.792,0-1.494-0.189-2.106-0.567c-0.612-0.378-1.092-0.912-1.44-1.602s-0.522-1.485-0.522-2.385c0-0.9,0.174-1.695,0.522-2.385
			s0.828-1.224,1.44-1.602c0.612-0.378,1.314-0.567,2.106-0.567c0.636,0,1.212,0.138,1.728,0.414s0.912,0.648,1.188,1.116v-1.296
			H277.667z M274.4,74.621c0.378-0.438,0.567-1.047,0.567-1.827c0-0.768-0.186-1.371-0.558-1.809
			c-0.372-0.438-0.895-0.657-1.566-0.657s-1.2,0.219-1.584,0.657c-0.384,0.438-0.576,1.042-0.576,1.809
			c0,0.768,0.192,1.375,0.576,1.818c0.384,0.444,0.912,0.666,1.584,0.666C273.503,75.278,274.022,75.059,274.4,74.621z"/>
		<path fill="#FFFFFF" d="M288.035,73.262h-6.012c0.048,0.852,0.27,1.473,0.666,1.863c0.396,0.39,0.984,0.585,1.764,0.585
			c0.468,0,0.936-0.078,1.404-0.234c0.468-0.156,0.9-0.384,1.296-0.684l0.72,1.836c-0.432,0.348-0.969,0.621-1.611,0.819
			c-0.642,0.198-1.287,0.297-1.935,0.297c-1.536,0-2.742-0.423-3.618-1.269s-1.314-2.001-1.314-3.465
			c0-0.924,0.189-1.749,0.567-2.475s0.909-1.29,1.593-1.692s1.458-0.603,2.322-0.603c1.284,0,2.298,0.417,3.042,1.251
			s1.116,1.959,1.116,3.375V73.262z M282.698,70.598c-0.318,0.3-0.525,0.738-0.621,1.314h3.618
			c-0.144-1.176-0.727-1.764-1.746-1.764C283.433,70.148,283.016,70.298,282.698,70.598z"/>
		<path fill="#FFFFFF" d="M297.934,73.262h-6.012c0.048,0.852,0.27,1.473,0.666,1.863c0.396,0.39,0.984,0.585,1.764,0.585
			c0.468,0,0.936-0.078,1.404-0.234c0.468-0.156,0.9-0.384,1.296-0.684l0.72,1.836c-0.432,0.348-0.969,0.621-1.611,0.819
			c-0.642,0.198-1.287,0.297-1.935,0.297c-1.536,0-2.742-0.423-3.618-1.269s-1.314-2.001-1.314-3.465
			c0-0.924,0.189-1.749,0.567-2.475s0.909-1.29,1.593-1.692s1.458-0.603,2.322-0.603c1.284,0,2.298,0.417,3.042,1.251
			s1.116,1.959,1.116,3.375V73.262z M292.597,70.598c-0.318,0.3-0.525,0.738-0.621,1.314h3.618
			c-0.144-1.176-0.727-1.764-1.746-1.764C293.332,70.148,292.915,70.298,292.597,70.598z"/>
		<path fill="#FFFFFF" d="M305.926,68.438l-0.018,2.484c-0.444-0.204-0.888-0.306-1.332-0.306c-0.72,0-1.269,0.195-1.647,0.585
			c-0.378,0.39-0.567,0.933-0.567,1.629v4.77h-2.718v-6.516c0-0.972-0.048-1.842-0.144-2.61h2.556l0.18,1.566
			c0.228-0.576,0.585-1.017,1.071-1.323c0.486-0.306,1.035-0.459,1.647-0.459C305.338,68.258,305.662,68.318,305.926,68.438z"/>
		<path fill="#FFFFFF" d="M319.768,68.825c0.612,0.39,1.086,0.942,1.422,1.656c0.336,0.714,0.504,1.539,0.504,2.475
			s-0.171,1.767-0.513,2.493c-0.342,0.726-0.819,1.29-1.431,1.692c-0.612,0.402-1.308,0.603-2.088,0.603
			c-0.636,0-1.209-0.135-1.719-0.405c-0.51-0.27-0.897-0.639-1.161-1.107V77.6h-2.7V64.352h2.718v5.4
			c0.264-0.468,0.651-0.837,1.161-1.107c0.51-0.27,1.077-0.405,1.701-0.405C318.454,68.24,319.156,68.435,319.768,68.825z
			 M318.436,74.972c0.36-0.468,0.54-1.14,0.54-2.016c0-0.84-0.18-1.488-0.54-1.944c-0.36-0.456-0.876-0.684-1.548-0.684
			s-1.191,0.231-1.557,0.693c-0.366,0.462-0.549,1.119-0.549,1.971c0,0.864,0.183,1.527,0.549,1.989
			c0.366,0.462,0.885,0.693,1.557,0.693S318.075,75.44,318.436,74.972z"/>
		<path fill="#FFFFFF" d="M323.44,77.6V64.352h2.718V77.6H323.44z"/>
		<path fill="#FFFFFF" d="M328.281,64.19h2.898v2.556h-2.898V64.19z M328.372,77.6v-9.126h2.718V77.6H328.372z"/>
		<path fill="#FFFFFF" d="M342.177,72.074V77.6h-2.718v-5.4c0-0.636-0.117-1.101-0.351-1.395c-0.234-0.294-0.603-0.441-1.107-0.441
			c-0.6,0-1.08,0.192-1.44,0.576c-0.36,0.384-0.54,0.9-0.54,1.548V77.6h-2.718v-6.516c0-0.972-0.048-1.842-0.144-2.61h2.556
			l0.18,1.44c0.324-0.54,0.747-0.954,1.269-1.242c0.522-0.288,1.113-0.432,1.773-0.432C341.097,68.24,342.177,69.518,342.177,72.074
			z"/>
		<path fill="#FFFFFF" d="M353.481,64.352V77.6h-2.682v-1.35c-0.276,0.468-0.666,0.834-1.17,1.098s-1.074,0.396-1.71,0.396
			c-0.78,0-1.476-0.201-2.088-0.603c-0.612-0.402-1.089-0.966-1.431-1.692c-0.342-0.726-0.513-1.557-0.513-2.493
			s0.171-1.761,0.513-2.475c0.342-0.714,0.816-1.266,1.422-1.656s1.305-0.585,2.097-0.585c0.612,0,1.17,0.129,1.674,0.387
			c0.504,0.258,0.894,0.615,1.17,1.071v-5.346H353.481z M350.259,74.981c0.36-0.462,0.54-1.125,0.54-1.989
			c0-0.852-0.183-1.509-0.549-1.971c-0.366-0.462-0.879-0.693-1.539-0.693c-0.672,0-1.194,0.228-1.566,0.684
			s-0.558,1.104-0.558,1.944c0,0.864,0.186,1.533,0.558,2.007c0.372,0.475,0.894,0.711,1.566,0.711
			C349.383,75.674,349.899,75.443,350.259,74.981z"/>
		<path fill="#FFFFFF" d="M369.879,64.352V77.6h-2.682v-1.35c-0.276,0.468-0.666,0.834-1.17,1.098s-1.074,0.396-1.71,0.396
			c-0.78,0-1.476-0.201-2.089-0.603c-0.611-0.402-1.088-0.966-1.43-1.692c-0.342-0.726-0.513-1.557-0.513-2.493
			s0.171-1.761,0.513-2.475c0.342-0.714,0.816-1.266,1.422-1.656c0.605-0.39,1.305-0.585,2.097-0.585
			c0.612,0,1.17,0.129,1.674,0.387c0.504,0.258,0.894,0.615,1.17,1.071v-5.346H369.879z M366.657,74.981
			c0.36-0.462,0.54-1.125,0.54-1.989c0-0.852-0.184-1.509-0.549-1.971c-0.366-0.462-0.879-0.693-1.539-0.693
			c-0.672,0-1.194,0.228-1.566,0.684s-0.558,1.104-0.558,1.944c0,0.864,0.186,1.533,0.558,2.007
			c0.372,0.475,0.895,0.711,1.566,0.711S366.297,75.443,366.657,74.981z"/>
		<path fill="#FFFFFF" d="M373.884,77.168c-0.727-0.384-1.284-0.936-1.675-1.656c-0.39-0.72-0.584-1.56-0.584-2.52
			s0.194-1.8,0.584-2.52c0.391-0.72,0.948-1.272,1.675-1.656c0.726-0.384,1.575-0.576,2.547-0.576c0.96,0,1.8,0.192,2.521,0.576
			c0.719,0.384,1.274,0.936,1.664,1.656c0.391,0.72,0.586,1.56,0.586,2.52s-0.195,1.8-0.586,2.52
			c-0.39,0.72-0.945,1.272-1.664,1.656c-0.721,0.384-1.561,0.576-2.521,0.576C375.459,77.744,374.609,77.552,373.884,77.168z
			 M377.969,75.008c0.354-0.444,0.53-1.116,0.53-2.016c0-0.888-0.177-1.557-0.53-2.007c-0.354-0.45-0.867-0.675-1.539-0.675
			c-0.685,0-1.206,0.225-1.565,0.675c-0.361,0.45-0.541,1.119-0.541,2.007c0,1.788,0.702,2.682,2.106,2.682
			C377.102,75.674,377.615,75.452,377.969,75.008z"/>
		<path fill="#FFFFFF" d="M384.756,77.168c-0.727-0.384-1.284-0.936-1.674-1.656c-0.391-0.72-0.586-1.56-0.586-2.52
			s0.195-1.8,0.586-2.52c0.39-0.72,0.947-1.272,1.674-1.656c0.726-0.384,1.574-0.576,2.547-0.576c0.96,0,1.8,0.192,2.52,0.576
			c0.721,0.384,1.275,0.936,1.666,1.656c0.389,0.72,0.584,1.56,0.584,2.52s-0.195,1.8-0.584,2.52
			c-0.391,0.72-0.945,1.272-1.666,1.656c-0.72,0.384-1.56,0.576-2.52,0.576C386.33,77.744,385.481,77.552,384.756,77.168z
			 M388.842,75.008c0.354-0.444,0.531-1.116,0.531-2.016c0-0.888-0.178-1.557-0.531-2.007c-0.354-0.45-0.867-0.675-1.539-0.675
			c-0.684,0-1.206,0.225-1.566,0.675c-0.359,0.45-0.539,1.119-0.539,2.007c0,1.788,0.701,2.682,2.105,2.682
			C387.974,75.674,388.487,75.452,388.842,75.008z"/>
		<path fill="#FFFFFF" d="M400.099,68.438l-0.018,2.484c-0.443-0.204-0.889-0.306-1.332-0.306c-0.72,0-1.269,0.195-1.646,0.585
			c-0.379,0.39-0.567,0.933-0.567,1.629v4.77h-2.718v-6.516c0-0.972-0.049-1.842-0.145-2.61h2.557l0.18,1.566
			c0.229-0.576,0.585-1.017,1.071-1.323c0.485-0.306,1.034-0.459,1.647-0.459C399.511,68.258,399.836,68.318,400.099,68.438z"/>
		<path fill="#FFFFFF" d="M415.4,64.352V77.6h-2.682v-1.35c-0.277,0.468-0.666,0.834-1.17,1.098s-1.074,0.396-1.711,0.396
			c-0.779,0-1.476-0.201-2.088-0.603c-0.611-0.402-1.089-0.966-1.431-1.692c-0.343-0.726-0.513-1.557-0.513-2.493
			s0.17-1.761,0.513-2.475c0.342-0.714,0.815-1.266,1.422-1.656s1.306-0.585,2.097-0.585c0.612,0,1.17,0.129,1.674,0.387
			c0.504,0.258,0.895,0.615,1.17,1.071v-5.346H415.4z M412.177,74.981c0.36-0.462,0.541-1.125,0.541-1.989
			c0-0.852-0.184-1.509-0.549-1.971c-0.367-0.462-0.88-0.693-1.539-0.693c-0.673,0-1.195,0.228-1.566,0.684
			c-0.373,0.456-0.559,1.104-0.559,1.944c0,0.864,0.186,1.533,0.559,2.007c0.371,0.475,0.894,0.711,1.566,0.711
			C411.302,75.674,411.818,75.443,412.177,74.981z"/>
		<path fill="#FFFFFF" d="M425.786,73.262h-6.013c0.049,0.852,0.271,1.473,0.666,1.863c0.396,0.39,0.984,0.585,1.765,0.585
			c0.468,0,0.937-0.078,1.403-0.234c0.469-0.156,0.9-0.384,1.297-0.684l0.72,1.836c-0.433,0.348-0.97,0.621-1.61,0.819
			c-0.643,0.198-1.287,0.297-1.936,0.297c-1.536,0-2.742-0.423-3.618-1.269s-1.313-2.001-1.313-3.465
			c0-0.924,0.188-1.749,0.566-2.475s0.909-1.29,1.594-1.692c0.684-0.402,1.457-0.603,2.321-0.603c1.284,0,2.298,0.417,3.042,1.251
			s1.116,1.959,1.116,3.375V73.262z M420.449,70.598c-0.318,0.3-0.525,0.738-0.621,1.314h3.618
			c-0.144-1.176-0.727-1.764-1.746-1.764C421.183,70.148,420.767,70.298,420.449,70.598z"/>
		<path fill="#FFFFFF" d="M440.221,68.843c0.612,0.402,1.089,0.969,1.431,1.701c0.342,0.732,0.514,1.566,0.514,2.502
			s-0.168,1.761-0.504,2.475c-0.336,0.714-0.811,1.263-1.422,1.647c-0.613,0.384-1.314,0.576-2.106,0.576
			c-0.636,0-1.206-0.132-1.71-0.396s-0.889-0.63-1.152-1.098v5.238h-2.718V71.084c0-0.972-0.048-1.842-0.144-2.61h2.555l0.181,1.512
			c0.239-0.54,0.627-0.966,1.161-1.278c0.533-0.312,1.143-0.468,1.827-0.468C438.914,68.24,439.609,68.441,440.221,68.843z
			 M438.908,74.999c0.359-0.45,0.539-1.101,0.539-1.953c0-0.852-0.183-1.518-0.549-1.998s-0.879-0.72-1.539-0.72
			c-0.672,0-1.191,0.231-1.557,0.693c-0.366,0.462-0.549,1.125-0.549,1.989c0,0.864,0.183,1.524,0.549,1.98
			c0.365,0.456,0.885,0.684,1.557,0.684S438.547,75.449,438.908,74.999z"/>
		<path fill="#FFFFFF" d="M453.055,68.474V77.6h-2.683v-1.35c-0.275,0.468-0.666,0.834-1.17,1.098s-1.074,0.396-1.709,0.396
			c-0.793,0-1.492-0.192-2.098-0.576c-0.605-0.384-1.08-0.933-1.422-1.647c-0.342-0.714-0.514-1.539-0.514-2.475
			s0.172-1.77,0.514-2.502c0.342-0.731,0.818-1.299,1.431-1.701s1.308-0.603,2.089-0.603c0.635,0,1.205,0.138,1.709,0.414
			s0.895,0.648,1.17,1.116v-1.296H453.055z M449.834,74.99c0.359-0.456,0.539-1.116,0.539-1.98c0-0.864-0.18-1.527-0.539-1.989
			c-0.36-0.462-0.877-0.693-1.549-0.693s-1.193,0.24-1.566,0.72c-0.371,0.48-0.557,1.146-0.557,1.998
			c0,0.853,0.182,1.503,0.549,1.953c0.365,0.45,0.891,0.675,1.574,0.675C448.957,75.674,449.473,75.446,449.834,74.99z"/>
		<path fill="#FFFFFF" d="M464.485,68.474v8.712c0,1.452-0.421,2.556-1.261,3.312s-2.063,1.134-3.672,1.134
			c-1.451,0-2.711-0.282-3.779-0.846l0.414-2.016c1.104,0.552,2.195,0.828,3.275,0.828c0.78,0,1.362-0.183,1.746-0.549
			c0.385-0.366,0.576-0.921,0.576-1.665V75.8c-0.287,0.444-0.689,0.813-1.206,1.107s-1.086,0.441-1.71,0.441
			c-0.792,0-1.494-0.189-2.105-0.567c-0.612-0.378-1.092-0.912-1.44-1.602s-0.522-1.485-0.522-2.385c0-0.9,0.174-1.695,0.522-2.385
			s0.828-1.224,1.44-1.602c0.611-0.378,1.313-0.567,2.105-0.567c0.637,0,1.212,0.138,1.729,0.414
			c0.516,0.276,0.912,0.648,1.188,1.116v-1.296H464.485z M461.219,74.621c0.377-0.438,0.566-1.047,0.566-1.827
			c0-0.768-0.186-1.371-0.558-1.809c-0.372-0.438-0.895-0.657-1.566-0.657s-1.2,0.219-1.584,0.657
			c-0.384,0.438-0.575,1.042-0.575,1.809c0,0.768,0.191,1.375,0.575,1.818s0.912,0.666,1.584,0.666
			C460.321,75.278,460.84,75.059,461.219,74.621z"/>
		<path fill="#FFFFFF" d="M466.572,64.19h2.898v2.556h-2.898V64.19z M466.663,77.6v-9.126h2.718V77.6H466.663z"/>
		<path fill="#FFFFFF" d="M480.469,72.074V77.6h-2.719v-5.4c0-0.636-0.116-1.101-0.351-1.395c-0.233-0.294-0.603-0.441-1.106-0.441
			c-0.601,0-1.08,0.192-1.44,0.576c-0.36,0.384-0.54,0.9-0.54,1.548V77.6h-2.718v-6.516c0-0.972-0.048-1.842-0.144-2.61h2.555
			l0.181,1.44c0.324-0.54,0.747-0.954,1.269-1.242c0.522-0.288,1.113-0.432,1.773-0.432
			C479.388,68.24,480.469,69.518,480.469,72.074z"/>
		<path fill="#FFFFFF" d="M491.773,68.474V77.6h-2.684v-1.35c-0.275,0.468-0.666,0.834-1.17,1.098s-1.074,0.396-1.709,0.396
			c-0.793,0-1.492-0.192-2.098-0.576c-0.605-0.384-1.08-0.933-1.422-1.647c-0.342-0.714-0.513-1.539-0.513-2.475
			s0.171-1.77,0.513-2.502c0.342-0.731,0.819-1.299,1.432-1.701c0.611-0.402,1.307-0.603,2.088-0.603
			c0.635,0,1.205,0.138,1.709,0.414s0.895,0.648,1.17,1.116v-1.296H491.773z M488.551,74.99c0.359-0.456,0.539-1.116,0.539-1.98
			c0-0.864-0.18-1.527-0.539-1.989c-0.359-0.462-0.877-0.693-1.549-0.693s-1.193,0.24-1.564,0.72
			c-0.373,0.48-0.559,1.146-0.559,1.998c0,0.853,0.184,1.503,0.549,1.953c0.365,0.45,0.891,0.675,1.574,0.675
			C487.674,75.674,488.191,75.446,488.551,74.99z"/>
	</g>
</g>
</svg>
